<svg fill="none" focusable="false" height="24" role="img" viewBox="0 0 24 24" width="24" xmlns="http://www.w3.org/2000/svg" xmlns:xlink="http://www.w3.org/1999/xlink" class="css-84d4bu" aria-labelledby="b8c55e3f-ffe3-4150-9f71-5eb94b5105a1"><defs><symbol id="menu" viewBox="0 0 24 24">
      <path fill="currentColor" d="M1 4a1 1 0 0 0 0 2h22a1 1 0 1 0 0-2H1Zm-1 8a1 1 0 0 1 1-1h22a1 1 0 1 1 0 2H1a1 1 0 0 1-1-1Zm0 7a1 1 0 0 1 1-1h22a1 1 0 1 1 0 2H1a1 1 0 0 1-1-1Z"></path>
    </symbol></defs><title id="b8c55e3f-ffe3-4150-9f71-5eb94b5105a1">open menu</title><use xlink:href="#menu" fill="none"></use></svg>