<svg fill="none" focusable="false" height="24" role="img" viewBox="0 0 24 24" width="24" xmlns="http://www.w3.org/2000/svg" xmlns:xlink="http://www.w3.org/1999/xlink" class="css-k9fw9" aria-labelledby="814bebda-8d97-4925-9e35-6bd68a2ee717"><defs><symbol id="flagUnitedStates" viewBox="0 0 24 24">
      <path fill="#f0f0f0" d="M0 0h24v24H0z"></path>
      <path fill="#ff1612" d="M0 22.2h24V24H0zm0-3.7h24v1.9H0zm0-3.7h24v1.9H0zm12.2-3.7H24V13H12.2zm0-3.7H24v1.9H12.2zm0-3.7H24v1.9H12.2zm0-3.7H24v1.8H12.2z"></path>
      <path fill="#0540a8" d="M0 0h12.2v13H0z"></path>
      <path fill="#fbf9f8" d="M3 2.4h-.5l.4.3-.2.5.5-.3.4.3-.2-.5.5-.3h-.6l-.1-.6zm7.9 4-.2-.6-.1.6H10l.5.3-.2.5.4-.3.5.3-.2-.5.4-.3zm-8.1-.5.4-.3.4.3-.1-.5.4-.3h-.5l-.2-.6-.2.6h-.5l.4.3zM1.3 9.7l.4-.3.4.3-.1-.5.4-.3h-.5l-.2-.5-.2.5H1l.4.3zm-.1-7.8.5-.3.4.3-.2-.5.5-.3h-.6L1.7.5l-.2.6H1l.4.3zm.7 4.5-.2-.6-.2.6H1l.4.3-.1.5.4-.3.4.3-.1-.5.4-.3zm4.1-4h-.5l.4.3-.1.5.4-.3.4.3-.1-.5.4-.3h-.6l-.1-.6zm5.4 1.3h-.5l-.2-.6-.2.6H10l.4.3-.1.5.4-.3.4.3L11 4zM9 2.4h-.5l.4.3-.1.5.4-.3.4.3-.1-.5.4-.3h-.5l-.2-.6zM.7 10.9l-.2-.5.4-.3H.4l-.2-.5-.1.5H0v.7l.2-.2zm4.4-1.2L5 9.2l.4-.3h-.5l-.2-.5-.2.5H4l.4.3-.1.5.4-.3zm2.8-3.3-.2-.6-.1.6H7l.5.3-.2.5.4-.3.5.3-.2-.5.4-.3zm-3.6.8.4-.3.4.3-.1-.5.4-.3h-.5l-.2-.6-.1.6H4l.4.3zm-1.5 3.7.5-.3.4.3-.2-.5.5-.3h-.6l-.1-.5-.2.5h-.5l.4.3zm3-5 .4-.3.5.3-.2-.5.4-.3h-.5l-.2-.6-.1.6h-.6l.5.3zm-5.2 0-.1-.5.4-.3H.4l-.2-.6-.2.6v.6l.2-.1zm8.8 4.2-.1-.5-.2.5h-.5l.4.3-.2.5.5-.3.4.3-.2-.5.5-.3zm-1.3-.4L8 9.2l.4-.3h-.5l-.2-.5-.2.5H7l.4.3-.1.5.4-.3zm-1.7.4-.1-.5-.2.5h-.5l.4.3-.2.5.5-.3.4.3-.2-.5.5-.3zM9 7.6h-.5l.4.3-.1.5.4-.3.4.3-.1-.5.4-.3h-.5l-.2-.5zM.6 3.2l-.2-.5.5-.3H.3l-.1-.6-.2.6V3l.2-.1zm7.3 8.2-.1-.5-.2.5h-.5l.4.3-.2.5.5-.3.4.3-.2-.5.5-.3zm-3 0-.1-.5-.2.5h-.5l.4.3-.2.5.5-.3.4.3-.2-.5.5-.3zm-3 0-.1-.5-.2.5h-.5l.4.3-.2.5.5-.3.4.3-.2-.5.5-.3zm9 0-.1-.5-.2.5h-.5l.4.3-.2.5.5-.3.4.3-.2-.5.5-.3zM.6 8.4l-.1-.5.4-.3H.4l-.2-.5-.2.5v.6l.2-.1zm10.8.5h-.5l-.2-.5-.1.5H10l.4.3-.1.5.4-.3.4.3-.1-.5zM9.9 5.1h-.5l-.2-.6-.1.6h-.6l.5.3-.2.5.4-.3.5.3-.2-.5zM2.5 7.6l.4.3-.1.5.4-.3.4.3-.1-.5.4-.3h-.5l-.2-.5-.2.5zm4.8-5.7.4-.3.4.3-.1-.5.4-.3h-.5L7.7.5l-.2.6H7l.4.3zm3 0 .4-.3.4.3-.1-.5.4-.3h-.5l-.2-.6-.2.6H10l.4.3zm-6.1 0 .5-.3.4.3-.2-.5.5-.3h-.6L4.7.5l-.2.6H4l.4.3zm1.3 5.7.4.3-.1.5.4-.3.4.3-.1-.5.4-.3h-.5l-.2-.5-.2.5zm-.8-3.4.4.3-.2-.5.5-.3h-.6l-.1-.6-.2.6H4l.4.3-.2.5zm-3.5.3.5-.3.4.3-.2-.5.5-.3h-.6l-.1-.6-.2.6H1l.4.3zm6.1 0 .4-.3.4.3L8 4l.4-.3h-.5l-.2-.6-.2.6H7l.4.3z"></path>
    </symbol></defs><title id="814bebda-8d97-4925-9e35-6bd68a2ee717">change locale</title><use xlink:href="#flagUnitedStates" fill="none"></use></svg>